<svg width="14" height="14" viewBox="0 0 14 14" fill="none" xmlns="http://www.w3.org/2000/svg">
<path d="M12.5002 7.91658H7.91683V12.4999C7.91683 13.0041 7.50433 13.4166 7.00016 13.4166C6.496 13.4166 6.0835 13.0041 6.0835 12.4999V7.91658H1.50016C0.995996 7.91658 0.583496 7.50409 0.583496 6.99992C0.583496 6.49575 0.995996 6.08325 1.50016 6.08325H6.0835V1.49992C6.0835 0.995752 6.496 0.583252 7.00016 0.583252C7.50433 0.583252 7.91683 0.995752 7.91683 1.49992V6.08325H12.5002C13.0043 6.08325 13.4168 6.49575 13.4168 6.99992C13.4168 7.50409 13.0043 7.91658 12.5002 7.91658Z" fill="black"/>
</svg>
