<svg width="10" height="12" viewBox="0 0 10 12" fill="none" xmlns="http://www.w3.org/2000/svg">
<path d="M1.49984 10.0833C1.49984 10.725 2.02484 11.25 2.6665 11.25H7.33317C7.97484 11.25 8.49984 10.725 8.49984 10.0833V4.25C8.49984 3.60833 7.97484 3.08333 7.33317 3.08333H2.6665C2.02484 3.08333 1.49984 3.60833 1.49984 4.25V10.0833ZM8.49984 1.33333H7.0415L6.62734 0.919167C6.52234 0.814167 6.37067 0.75 6.219 0.75H3.78067C3.629 0.75 3.47734 0.814167 3.37234 0.919167L2.95817 1.33333H1.49984C1.179 1.33333 0.916504 1.59583 0.916504 1.91667C0.916504 2.2375 1.179 2.5 1.49984 2.5H8.49984C8.82067 2.5 9.08317 2.2375 9.08317 1.91667C9.08317 1.59583 8.82067 1.33333 8.49984 1.33333Z" fill="#434343"/>
</svg>
