<svg width="17" height="16" viewBox="0 0 17 16" fill="none" xmlns="http://www.w3.org/2000/svg">
<path d="M16.5 13.8333V2.16667C16.5 1.25 15.7 0.5 14.7222 0.5H2.27778C1.3 0.5 0.5 1.25 0.5 2.16667V13.8333C0.5 14.75 1.3 15.5 2.27778 15.5H14.7222C15.7 15.5 16.5 14.75 16.5 13.8333ZM5.74444 9.65L7.61111 11.7583L10.3667 8.43333C10.5444 8.21667 10.9 8.21667 11.0778 8.44167L14.1978 12.3417C14.42 12.6167 14.2067 13.0083 13.8422 13.0083H3.18444C2.81111 13.0083 2.60667 12.6083 2.83778 12.3333L5.05111 9.66667C5.22 9.45 5.55778 9.44167 5.74444 9.65Z" fill="#434343"/>
</svg>
